<svg xmlns="http://www.w3.org/2000/svg" viewBox="0 0 227.437 76.385"><path fill="#ed1c24" fill-rule="evenodd" d="M31.124.089c-3.499.347-4.914 1.367-6.649 4.793-.278.548-.893 1.67-1.366 2.493a57.505 57.505 0 0 0-1.354 2.494c-.272.549-1.055 2.03-1.74 3.293-1.622 2.985-1.518 3.986.468 4.556.693.199.812.152 1.125-.447 1.342-2.56 6.13-4.65 8.3-3.621.961.457 1.031.943.323 2.264-.274.512-.499 1.085-.499 1.274 0 .189-.218.752-.485 1.25-.54 1.009-1.62 3.614-2.135 5.147a16.586 16.586 0 0 1-.852 1.985c-.285.544-.518 1.14-.518 1.325 0 .185-.265.919-.588 1.63a41.482 41.482 0 0 0-1.013 2.464c-.942 2.598-1.269 2.84-4.883 3.604-3.856.815-6.639 3.179-8.454 7.182-.853 1.882-.85 1.873-.559 2.334.236.372 1.272.029 2.155-.715.53-.445 3.13-1.348 4.655-1.616 2.052-.361 2.457.519 1.353 2.936-.33.723-.963 2.156-1.405 3.185-1.14 2.655-1.002 2.57-4.589 2.76-8.96.477-13.93 7.933-12.002 18.008.196 1.022.588 2.293.873 2.823.284.53.517 1.052.517 1.159 0 .49 2.126 3.235 2.761 3.563 1.233.638 1.603-.575.688-2.257-4.833-8.885 2.583-17.09 11.763-13.011.754.335 1.54.68 1.746.769.351.149 1.074.613 3.395 2.174.533.359 1.438 1.108 2.011 1.666 2.578 2.509 2.15 2.74 9.658-5.202 3.742-3.957 3.73-5.17-.039-3.854l-1.778.622-1.574-.746c-.866-.411-2.023-1.086-2.57-1.502a44.873 44.873 0 0 0-1.996-1.41c-1.784-1.173-2.006-2.431-.88-4.977a23.6 23.6 0 0 0 .854-2.404c.562-1.934 1.662-3.084 2.453-2.566 2.088 1.368 9.364 2.208 16.482 1.904 3.91-.168 3.924-.157 5.152 4.227.25.89.634 2.154.852 2.805 1.04 3.09 1.222 3.66 1.658 5.175.6 2.077 1.395 4.525 1.986 6.109.256.686.587 1.719.736 2.296.283 1.094 1.338 2.567 1.84 2.567.16 0 3.913-3.625 8.341-8.056 8.82-8.826 8.953-9.008 7.36-9.955l-.799-.474-1.282 1.013c-1.427 1.128-1.634 1.182-2.427.626-.54-.38-1.939-3.114-2.56-5.013-.174-.527-.454-1.183-.624-1.457-.17-.275-.448-.948-.617-1.497-.17-.548-.448-1.165-.617-1.371-.17-.206-.484-.88-.7-1.496-.56-1.604-1.637-4.257-2.025-4.988-.182-.343-.475-1.07-.65-1.615-.176-.545-.527-1.331-.78-1.746-.253-.414-.46-.922-.46-1.128-.003-.206-.339-1.047-.75-1.87-.41-.823-.746-1.637-.747-1.808 0-.171-.267-.845-.593-1.496-.326-.652-.88-1.802-1.23-2.556-2.059-4.422-4.86-9.868-5.855-11.376-.372-.565-1.002-1.52-1.4-2.12C43.575 2.634 38.006-.593 31.125.089m178.657 6.03c-.343.19-2.868 2.675-5.61 5.52-2.744 2.846-5.297 5.454-5.674 5.796-1.999 1.812.088 3.697 2.355 2.126 1.976-1.37 4.294-1.133 4.987.51.408.966.303 39.098-.11 39.923-.138.274-.573.8-.967 1.17-.945.886-.93.937.593 2.174 1.828 1.484 5.012 4.373 6.657 6.04 2.075 2.105 2.058 2.106 5.1-.455 2.593-2.183 3.93-3.241 6.606-5.231 3.862-2.872 3.828-2.838 3.664-3.66-.18-.898-.579-1.221-1.267-1.023-1.756.506-2.479.422-3.242-.381l-.748-.786-.125-21.867c-.073-12.827-.22-22.073-.358-22.365-2.098-4.466-9.21-8.958-11.86-7.49M38.88 19.72l.685 1.37c.205.413.548 1.142.761 1.622.213.48.606 1.322.873 1.87a55.449 55.449 0 0 1 2.003 4.739c.251.685.812 2.2 1.247 3.366 1.055 2.827 1.07 3.267.121 3.535-2.058.58-11.73-.772-13.002-1.82-.312-.256-.117-1.503.366-2.34.157-.273.522-1.114.811-1.87.288-.753.795-2.072 1.125-2.93.33-.856.862-2.26 1.181-3.116.32-.857.755-1.895.968-2.307a7.736 7.736 0 0 0 .57-1.621c.257-1.218.323-1.284 1.201-1.198.537.052.876.27 1.09.7m65.79 8.022c-.96.426-2.047 1.012-2.414 1.3-.368.29-1.074.808-1.568 1.15-.494.344-1.785 1.334-2.869 2.2-2.463 1.972-3.056 2.006-4.012.234-1.335-2.476-3.698-4.151-6.718-4.763-2.712-.55-3.287-.377-6.076 1.832l-3.147 2.493c-.95.755-2.239 1.764-2.862 2.244-2.289 1.762-1.508 3.11 1.654 2.855 3.357-.271 3.674.406 3.68 7.869.007 10.32-.36 12.425-2.36 13.554-1.548.873-1.49.973 2.734 4.775 1.22 1.097 2.452 2.228 2.738 2.512 3.997 3.967 4.48 4.104 6.771 1.92a504.72 504.72 0 0 1 4.207-3.933c4.757-4.401 4.631-4.263 4.631-5.078 0-.953-.336-1.16-1.262-.776-.937.388-2.043-.023-2.447-.908-.192-.421-.28-3.366-.28-9.25v-8.63l.651-.855c1.823-2.39 5.423-2.26 6.426.232.801 1.99.986 5.518.665 12.655-.322 7.158-.406 7.553-1.853 8.78l-.778.659 1.247 1.216c1.113 1.087 2.245 2.073 4.678 4.075.416.342.944.79 1.173.997 3.543 3.192 3.62 3.194 6.86.125.288-.275 1.633-1.453 2.986-2.62 6.042-5.202 6.717-6.488 3.461-6.598-2.468-.083-2.633-.792-2.527-10.857l.077-7.357.686-1.054c1.217-1.872 3-2.445 4.967-1.596 2.6 1.122 2.69 1.542 2.541 11.877-.139 9.734-.253 10.6-1.483 11.327-1.277.753-1.155 1.485.46 2.749 1.881 1.476 2.91 2.295 3.782 3.016.422.349 1.013.797 1.312.998.3.2 1.346 1.029 2.325 1.84 2.228 1.849 1.637 2.16 8.222-4.313 4.945-4.861 5.06-4.997 4.9-5.801-.246-1.23-.54-1.39-1.39-.762-.934.69-2.146.722-2.498.065-.165-.31-.263-4.267-.273-11.035l-.015-10.553-.796-1.921c-1.847-4.465-4.932-6.503-9.777-6.462-2.193.018-3.17.225-5.73 1.213-1.786.689-4.286 2.45-5.989 4.216-1.272 1.32-2.048 1.256-3.102-.256-1.444-2.071-4.585-4.742-6.779-5.763-1.744-.812-2.708-.78-4.829.163m54.361.697c-.412.073-1.059.358-1.436.632a453.508 453.508 0 0 0-5.045 3.726c-1.487 1.158-4.078 3.07-4.676 3.453-.73.468-.922 1.513-.44 2.412.333.626 1.716 1.096 2.153.733.57-.472 2.09-.697 2.87-.425 1.431.499 1.465.756 1.465 11.068v9.397l-.888.982c-1.026 1.136-1.048 1.845-.076 2.426.63.376 2.48 1.634 6.824 4.637a360.69 360.69 0 0 0 2.618 1.797c.343.229.825.619 1.07.866.576.58 1.761.574 2.62-.013 1.93-1.323 8.178-5.465 8.905-5.905.461-.28 1.051-.7 1.311-.935.951-.861 2.167-.565 3.617.88 1.6 1.596 3.815 3.545 5.174 4.552a90.716 90.716 0 0 1 1.724 1.309c.393.309.916.56 1.164.56.71 0 11.323-10.7 11.323-11.417 0-1.505-.806-1.892-2.188-1.05-3.415 2.082-4.17-.111-4.17-12.095 0-9.675-.086-10.38-1.504-12.464-1.94-2.854-4.469-4.201-7.93-4.227l-2.298-.017-2.508 2.119a272.865 272.865 0 0 1-3.437 2.868 60.987 60.987 0 0 0-1.709 1.434c-.429.377-.87.686-.983.686-.696 0-.847 1.615-.237 2.545.72 1.099.74 1.104 2.027.447 1.771-.904 2.873-.677 3.643.748.677 1.254.721 15.806.053 17.207-1.597 3.345-6.192 4.477-8.596 2.118-1.27-1.246-1.332-1.848-1.332-12.966V36.303l-.662-1.818c-1.26-3.464-5.58-6.556-8.446-6.046"/></svg>