<?xml version="1.0" encoding="UTF-8" standalone="no"?>
<!-- Created with Inkscape (http://www.inkscape.org/) -->

<svg
   xmlns:dc="http://purl.org/dc/elements/1.1/"
   xmlns:cc="http://creativecommons.org/ns#"
   xmlns:rdf="http://www.w3.org/1999/02/22-rdf-syntax-ns#"
   xmlns:svg="http://www.w3.org/2000/svg"
   xmlns="http://www.w3.org/2000/svg"
   xmlns:sodipodi="http://sodipodi.sourceforge.net/DTD/sodipodi-0.dtd"
   xmlns:inkscape="http://www.inkscape.org/namespaces/inkscape"
   width="1000"
   height="425.04501"
   id="svg2"
   sodipodi:version="0.32"
   inkscape:version="0.92.3 (2405546, 2018-03-11)"
   version="1.0"
   inkscape:output_extension="org.inkscape.output.svg.inkscape"
   sodipodi:docname="Cadbury_logo.svg">
  <metadata
     id="metadata2687">
    <rdf:RDF>
      <cc:Work
         rdf:about="">
        <dc:format>image/svg+xml</dc:format>
        <dc:type
           rdf:resource="http://purl.org/dc/dcmitype/StillImage" />
        <dc:title></dc:title>
      </cc:Work>
    </rdf:RDF>
  </metadata>
  <defs
     id="defs2685" />
  <sodipodi:namedview
     pagecolor="#ffffff"
     bordercolor="#666666"
     borderopacity="1"
     objecttolerance="10"
     gridtolerance="10"
     guidetolerance="10"
     inkscape:pageopacity="0"
     inkscape:pageshadow="2"
     inkscape:window-width="1360"
     inkscape:window-height="706"
     id="namedview2683"
     showgrid="false"
     inkscape:zoom="0.52733686"
     inkscape:cx="283.51751"
     inkscape:cy="120.71091"
     inkscape:window-x="-8"
     inkscape:window-y="-8"
     inkscape:window-maximized="1"
     inkscape:current-layer="layer1" />
  <g
     inkscape:label="Layer 1"
     inkscape:groupmode="layer"
     id="layer1"
     transform="translate(-174.90205,-236.22066)">
    <path
       id="path3298"
       d="m 585.40256,448.4946 c -29.88576,16.91079 -54.86145,52.22616 -68.93976,80.91597 -7.26668,10.84744 -3.91077,32.90497 16.79277,19.08467 15.25258,-10.19947 45.31029,-53.50817 64.85704,-85.72566 2.13475,-3.52752 4.54463,-10.96598 3.69948,-14.50073 -3.09754,-6.20247 -12.54533,-1.61852 -16.40953,0.22575 m 121.60296,21.54148 c -20.98628,5.87336 -36.20711,24.0591 -44.28631,42.88611 -4.24004,9.85575 -9.34744,26.14676 -3.35574,34.21925 2.47108,3.05115 6.76544,1.27496 9.22189,-0.51569 8.3695,-5.78026 14.44693,-14.75133 19.56122,-22.77727 9.38644,-16.74605 17.63071,-34.63444 19.96917,-54.06319 z m 82.20501,5.61551 c -10.91199,5.64022 -17.12928,23.88716 -19.24921,33.99388 -2.63598,12.70989 -5.0605,30.01801 0.71958,37.62137 1.32892,1.28201 3.06578,2.21306 5.18572,2.15962 8.67389,0.18606 14.70476,-13.20459 18.10706,-20.90072 5.69419,-12.79596 10.80107,-33.03003 8.97832,-45.95156 -0.69489,-6.66474 -7.06227,-9.61235 -13.74147,-6.92259 M 574.82,274.17483 c 21.08643,21.58838 27.46122,53.94539 17.3404,81.72901 -24.09102,61.63393 -86.61684,105.5444 -152.29434,123.18215 -31.07465,7.02293 -76.03448,10.46456 -104.55216,-4.11482 -25.49896,-14.07814 -37.70762,-43.78488 -32.74024,-71.88014 7.95416,-42.97925 41.01662,-74.21896 80.08493,-94.82922 32.56105,-15.67533 71.02777,-22.69809 109.95638,-18.31836 4.30124,0.68042 8.25133,2.76138 9.3471,7.73581 0.43704,3.57373 -0.11799,5.99137 -1.78342,8.28343 -2.75398,3.36279 -5.93758,4.16862 -9.47973,3.96438 -43.86372,-0.2649 -88.94844,10.62206 -121.08709,39.09351 -18.82683,17.86352 -34.00781,46.12335 -19.46793,76.13484 9.30778,18.90549 42.66743,24.6928 62.26797,22.90232 113.99978,-10.5434 149.19683,-80.16376 155.86862,-104.0509 13.71995,-49.09601 -34.38382,-90.87189 -126.79574,-78.02919 -119.56856,16.6134 -193.94466,97.79428 -209.15808,180.97709 -15.9801,87.39076 68.20572,124.45711 155.90794,106.01334 35.74483,-7.49189 73.40571,-24.49596 110.16784,-59.46743 30.30109,-31.80197 71.77963,-78.09022 118.75551,-70.94153 5.78767,1.31428 12.82824,4.24727 14.48627,10.66121 2.77566,11.34905 -3.05838,21.4771 -6.75081,31.55119 -37.35629,63.71471 -33.53126,89.55741 -26.85947,92.85953 13.71977,4.3478 22.56564,-15.21325 29.27694,-26.17233 8.92453,-41.22774 41.44625,-80.30327 83.40116,-92.16095 1.27495,-4.95998 1.40776,-9.98079 1.27495,-15.12013 -0.64815,-22.0718 -11.01236,-37.36371 -17.60549,-55.39195 -1.55767,-4.74868 0.0536,-10.58273 3.75309,-14.14235 2.93316,-3.03369 9.26862,-6.38184 14.40055,-4.98889 5.01377,0.85238 8.45538,4.88836 11.13051,8.42329 9.53353,14.66545 20.07693,23.1279 40.03868,23.12067 14.89138,0.50864 30.01872,-0.50124 41.9623,-8.3621 7.51694,-8.59525 16.10514,-17.89579 27.32896,-20.9293 5.4434,-1.08854 9.78397,0.0467 13.51588,3.3702 3.48801,3.52028 4.37972,8.8314 2.4709,13.56227 -3.44161,8.83864 -15.73633,17.37269 -24.44234,26.60921 -14.28221,15.20583 -24.73954,33.73548 -32.04537,53.46143 4.49083,-1.39312 10.75451,-2.8866 16.52771,-1.77636 16.61325,3.13721 21.88504,19.07762 22.83072,34.25152 0.29735,4.76315 0.15732,9.86281 -0.55503,14.78345 9.52612,-1.48607 15.58907,-5.04604 22.73017,-8.70584 12.20161,-6.8441 22.32949,-16.91817 32.10657,-26.48379 4.33334,-3.98978 10.87991,-5.42928 15.80091,-3.60653 3.87108,1.14956 7.06191,4.58413 7.74234,8.83141 1.72979,11.48906 -8.54128,15.08783 -23.2533,37.41044 -8.21183,12.49155 -17.55187,25.45947 -19.12419,40.75877 -0.21129,2.76102 0.46932,5.36455 2.28484,7.39189 3.37002,2.80759 8.93193,1.32858 12.55275,-0.75943 7.55627,-4.20089 13.60161,-10.9658 18.05329,-17.92805 6.50001,-23.69034 15.82205,-46.20218 34.80655,-62.66568 4.80971,-3.61359 10.63635,-7.04058 16.9323,-5.64745 3.38802,0.59453 6.14904,3.01905 6.83687,5.73334 3.77814,11.30987 -4.00406,26.06139 -9.40107,35.54095 -6.91553,12.20143 -18.09967,23.92684 -27.65841,34.68151 -0.25768,5.64763 1.01728,9.2755 5.39718,10.3785 6.67179,0.8776 11.94358,-4.08978 17.12225,-8.25116 14.46122,-13.47637 28.13443,-29.25223 36.69033,-47.31257 -1.40758,-16.26986 4.16138,-34.97851 18.69438,-43.55948 4.93477,-2.4709 10.66867,-2.22046 14.61867,0.46914 4.036,3.09048 4.1757,8.97126 3.4023,13.97797 -1.1426,5.86615 -4.4516,10.49665 -7.3846,15.5963 8.0651,0.51588 15.1594,-3.27708 22.6124,-5.13898 3.864,-0.806 6.1633,0.30441 8.3155,1.99471 3.8786,3.65291 4.2547,8.41606 2.3065,13.13988 -4.09,8.67373 -9.6123,13.34393 -15.4714,21.50214 -8.0722,11.26316 -15.4389,26.40461 -15.6967,37.73954 0.047,2.67549 1.1638,4.51271 2.9868,5.27902 4.3335,1.53281 8.0794,-1.69753 11.6787,-3.87848 24.9975,-18.90566 44.1286,-45.89106 64.8642,-68.3313 5.4367,-5.06756 11.6535,-10.28536 19.303,-7.86826 2.6685,0.93121 4.7634,3.06578 5.4761,5.94498 1.1567,5.44374 -2.027,12.24816 -5.4434,16.80002 -10.3574,15.80073 -24.224,33.77518 -24.765,52.4445 0.086,3.26967 1.103,4.3799 2.5893,4.84904 6.031,1.73686 13.251,-4.41941 18.6622,-9.43317 18.186,-16.71376 30.341,-37.96529 44.0749,-57.55139 2.6824,-4.22276 6.7903,-7.70354 11.772,-8.25856 3.4809,-0.21129 6.3675,0.72698 8.6201,3.07284 6.006,8.45539 0.985,21.0794 -3.2304,29.19122 -18.4901,34.89245 -38.0298,70.18262 -57.505,105.78795 -9.8162,17.14358 -15.2132,26.78787 -15.8076,40.1318 -0.562,1.52557 -1.9553,2.29207 -4.0363,1.53263 -11.0519,-4.0896 -15.4388,-10.91924 -15.5249,-19.13107 -0.079,-7.25927 6.382,-17.55187 8.8136,-22.35453 9.5513,-18.83387 22.5122,-38.73143 31.5297,-57.55861 -1.2819,1.03157 -3.6135,3.40229 -5.6549,5.06773 -12.0224,9.81641 -23.4252,22.39386 -39.5695,20.18063 -5.2646,-0.93122 -9.9418,-6.28873 -11.3886,-11.63212 -2.5963,-9.05715 -0.9312,-22.01784 1.7907,-31.28646 l -0.9921,0.97795 c -13.7593,14.65099 -28.5967,30.98188 -47.1656,40.1177 -5.7013,2.5963 -15.56427,4.45873 -21.29796,-0.72699 -10.87991,-11.21659 -8.2441,-31.15383 -2.29207,-45.76567 4.75592,-11.997 11.33493,-23.22083 18.49033,-33.78927 -5.2788,1.61146 -9.99525,2.3709 -15.30655,2.41041 l -1.78342,2.5963 c -16.87145,25.25506 -32.82613,53.68718 -57.72335,71.15316 -8.509,5.98449 -19.77216,6.46774 -26.82718,1.96244 -5.95239,-3.83898 -8.36967,-10.80107 -10.07444,-17.22948 -12.49878,9.47973 -34.21945,26.10039 -49.30024,18.71573 -9.05696,-4.84904 -12.96067,-15.09491 -12.5381,-25.46635 0.34392,-14.96987 6.92982,-30.43389 12.92134,-43.85684 -2.2991,1.08889 -3.53473,1.56508 -5.91251,2.63581 -5.7732,2.58924 -11.68573,4.41217 -17.55946,6.6254 -4.3187,12.1875 -13.46916,29.31678 -18.52225,36.16053 -7.44569,11.44235 -22.26846,25.84977 -35.69827,26.2794 -10.62929,0.72717 -19.97639,-4.20794 -25.03672,-13.05363 -12.03705,-19.50743 -6.42875,-46.16301 -1.62628,-69.11913 8.64199,-34.42348 22.40127,-66.42935 38.64589,-96.51227 -5.23949,0.66579 -9.35431,0.96314 -14.58659,1.27496 -9.34693,0.59453 -16.49562,1.47177 -26.60904,-0.5231 0.7344,55.0087 -13.72718,111.71493 -49.81575,155.10969 -10.23158,12.28044 -26.68804,25.20162 -44.66247,22.3868 -11.39579,-1.69048 -19.76511,-13.29032 -21.3764,-23.78716 -8.0404,13.80602 -23.39351,30.41962 -45.57589,18.23248 -13.1397,-7.2665 -13.34393,-13.77374 -14.2748,-28.22068 0,0 -27.75876,42.08013 -64.23058,32.20322 -16.44888,-4.59119 -30.55207,-20.95452 -21.83865,-47.00833 -45.31804,34.93918 -96.28335,57.67695 -141.55431,58.45756 -62.51136,1.10299 -117.63823,-24.40304 -144.4192,-67.0313 C 156.23134,470.92779 179.52414,388.81588 226.61802,336.819 273.67979,284.79723 327.10191,263.20198 361.78325,251.85981 458.02693,220.40192 540.60073,240.80812 574.82,274.17483"
       style="fill:#3e2774;fill-rule:evenodd;stroke:none;stroke-width:1.76367092"
       inkscape:connector-curvature="0" />
  </g>
</svg>
