<svg xmlns="http://www.w3.org/2000/svg" xmlns:xlink="http://www.w3.org/1999/xlink" viewBox="0 0 266.496 93.88"><defs><path id="reuse-0" d="M0 0h595.277v773.86H0Zm0 0"/><path id="reuse-1" d="M0 0h596v774H0z"/></defs><defs><symbol id="k" overflow="visible"><path d="M34.953-68.078c7.25 0 12.813 4.531 12.813 12.36 0 7.156-3.97 12.265-14.86 21.452L5.563-11V0h57.406v-12.25H25.187l16.344-13.625c14.063-11.453 20.657-18.266 20.657-30.86 0-14.187-10.329-23.828-26.22-23.828-14.187 0-21.671 6.016-29.28 16.672l9.875 7.72c6.125-7.938 11.125-11.907 18.39-11.907zm0 0"/></symbol><symbol id="l" overflow="visible"><path d="M75.688-39.828c0-22.813-13.626-40.969-34.5-40.969-20.876 0-34.72 18.39-34.72 41.203 0 22.797 13.61 40.953 34.5 40.953 20.876 0 34.72-18.375 34.72-41.187zm-14.422.234c0 15.766-7.703 28.36-20.078 28.36-12.36 0-20.313-12.704-20.313-28.594s7.719-28.36 20.094-28.36c12.36 0 20.297 12.813 20.297 28.594zm0 0"/></symbol><symbol id="m" overflow="visible"><path d="m2.953-73.188 2.953 11.344 14.297-3.968V0h13.844v-80H24.28Zm0 0"/></symbol><symbol id="n" overflow="visible"><path d="M7.719-67.172h39.937L12.031 0h15.656l35.86-68.875v-10.547H7.719Zm0 0"/></symbol><symbol id="o" overflow="visible"><path d="M39.938-28.031v-13.5H6.358v13.5zm0 0"/></symbol><symbol id="p" overflow="visible"><path d="M66.031-22.016c0-9.53-5.672-15.203-14.297-19.172C58.437-44.703 63.312-50.047 63.312-59c0-12.266-11.687-21.563-27.562-21.563-15.89 0-27.578 9.297-27.578 21.563 0 8.953 4.875 14.297 11.578 17.813-8.969 3.75-14.297 9.75-14.297 19.515 0 13.735 12.922 22.813 30.297 22.813 17.36 0 30.281-8.86 30.281-23.157zM49.921-57.64c0 6.922-6.015 11.797-14.171 11.797-8.172 0-14.188-4.875-14.188-11.906 0-6.14 5.672-11.125 14.188-11.125 8.5 0 14.172 4.984 14.172 11.234zm2.5 35.063c0 6.687-6.233 12.031-16.671 12.031-10.453 0-16.688-5.344-16.688-12.031 0-7.375 7.266-12.14 16.688-12.14 9.406 0 16.672 4.765 16.672 12.14zm0 0"/></symbol><clipPath id="g"><use xlink:href="#reuse-0"/></clipPath><clipPath id="e"><use xlink:href="#reuse-0"/></clipPath><clipPath id="d"><use xlink:href="#reuse-1"/></clipPath><clipPath id="f"><use xlink:href="#reuse-1"/></clipPath><clipPath id="j"><path d="M0 0h517v110H0z"/></clipPath><filter id="b" width="1" height="1" x="0" y="0" filterUnits="objectBoundingBox"><feColorMatrix in="SourceGraphic" values="0 0 0 0 1 0 0 0 0 1 0 0 0 0 1 0 0 0 1 0"/></filter><mask id="h"><g filter="url(#b)"><use xlink:href="#c" width="100%" height="100%"/></g></mask><g id="i" clip-path="url(#d)"><g clip-path="url(#e)"><use xlink:href="#reuse-1"/></g></g></defs><use xlink:href="#q" width="100%" height="100%" x="143.595" y="467.769" fill="#fff" transform="matrix(.70556 0 0 .70556 -9.353 -220.867)"/><path fill="#eb1923" d="M260.672 15.333a3.704 3.704 0 0 0-2.946-3.234C246.262 9.582 198.684.132 135.868.132h-5.21C67.807.132 20.228 9.583 8.765 12.1c-1.581.323-2.732 1.616-2.947 3.234L.14 64.96c0 .104.073.182.143.182 71.26-3.557 112.982 12.793 127.356 21.562a10.804 10.804 0 0 0 11.284 0c14.266-8.769 56.023-25.12 127.283-21.562.107 0 .144-.078.144-.182l-5.678-49.627"/><path fill="#fdd700" d="m.14 64.96.107-.863c49.088-4.815 119.989-2.227 157.074 18.543-6.18 2.516-15.56 7.726-18.399 9.45-3.486 2.157-7.834 2.157-11.284 0-2.839-1.723-6.792-3.952-11.787-6.324-20.16-9.63-58-22.28-114.562-19.62-.719.025-1.222-.54-1.15-1.187"/><path fill="#7fbd3f" d="m266.35 64.96-.107-.863c-49.052-4.816-120.06-2.193-157.146 18.614 6.145 2.48 15.524 7.618 18.507 9.38 3.666 2.263 7.834 2.156 11.284 0 2.839-1.727 6.756-3.81 11.787-6.326 19.98-10.026 58-22.28 114.526-19.62.683.026 1.258-.504 1.15-1.187"/><path fill="#fff" d="M46.317 34.2c2.623 1.113 4.097 3.413 4.097 6.36 0 5.03-3.342 8.445-9.092 8.445h-13.26V20.472h12.146c5.21 0 8.984 3.09 8.984 8.48 0 2.047-1.078 4.133-2.875 5.247m-12.182-8.48v6.468h5.606c2.084 0 3.414-1.114 3.45-3.055.036-2.083-1.33-3.414-3.45-3.414zm0 11.463v6.504h6.792c2.084 0 3.306-1.223 3.45-3.126.036-1.15-.431-2.227-1.258-2.803-.719-.503-1.545-.576-2.48-.576h-6.504M77.976 48.142v.863h-3.773c-3.018 0-4.24-2.37-4.24-2.37l-4.42-7.08H60.44v9.452h-6.11V20.402c4.061 0 8.122-.026 12.219 0 6.504 0 10.062 4.743 10.062 9.81 0 3.666-1.833 6.828-5.103 8.445zM66.477 34.558c2.551 0 4.24-1.976 4.204-4.456 0-2.407-1.58-4.348-4.204-4.348h-6.11v8.804h6.11M81.857 49.04h6.11V20.472h-6.11zM199.87 49.04h6.144V20.472h-6.145ZM91.847 25.754v-5.282h23.61l-1.653 3.557c-.467 1.077-1.545 1.724-2.731 1.724h-5.319v23.286h-5.929V25.753h-7.978M118.44 44.297l-2.192 4.743h-6.361v-.826l13.116-27.994h2.84l13.08 27.994v.826h-6.36l-2.229-4.743zm2.012-5.139h7.906l-3.953-9.415M147.727 32.726V49.04h-6.073V20.328h1.905l16.027 16.35V20.473h6.145v28.676h-1.833M176.87 32.726V49.04h-6.072V20.328h1.904l16.064 16.35V20.473h6.109v28.676h-1.833M217.981 44.297l-2.192 4.743h-6.36v-.826l13.116-27.994h2.839l13.044 27.994v.826h-6.324l-2.228-4.743zm2.012-5.139h7.906l-3.953-9.415"/></svg>