<?xml version="1.0" encoding="UTF-8" standalone="no"?>
<svg
   xmlns:dc="http://purl.org/dc/elements/1.1/"
   xmlns:cc="http://creativecommons.org/ns#"
   xmlns:rdf="http://www.w3.org/1999/02/22-rdf-syntax-ns#"
   xmlns:svg="http://www.w3.org/2000/svg"
   xmlns="http://www.w3.org/2000/svg"
   xmlns:sodipodi="http://sodipodi.sourceforge.net/DTD/sodipodi-0.dtd"
   xmlns:inkscape="http://www.inkscape.org/namespaces/inkscape"
   version="1.1"
   id="svg2"
   xml:space="preserve"
   width="477.93491"
   height="530.10913"
   viewBox="0 0 477.93491 530.10912"
   sodipodi:docname="Dabur Celebrate Life!.svg"
   inkscape:version="0.92.4 (5da689c313, 2019-01-14)"><metadata
     id="metadata8"><rdf:RDF><cc:Work
         rdf:about=""><dc:format>image/svg+xml</dc:format><dc:type
           rdf:resource="http://purl.org/dc/dcmitype/StillImage" /></cc:Work></rdf:RDF></metadata><defs
     id="defs6" /><sodipodi:namedview
     pagecolor="#ffffff"
     bordercolor="#666666"
     borderopacity="1"
     objecttolerance="10"
     gridtolerance="10"
     guidetolerance="10"
     inkscape:pageopacity="0"
     inkscape:pageshadow="2"
     inkscape:window-width="1920"
     inkscape:window-height="1001"
     id="namedview4"
     showgrid="false"
     inkscape:zoom="0.21024133"
     inkscape:cx="244.18489"
     inkscape:cy="269.14493"
     inkscape:window-x="-9"
     inkscape:window-y="41"
     inkscape:window-maximized="1"
     inkscape:current-layer="g10" /><g
     id="g10"
     inkscape:groupmode="layer"
     inkscape:label="dabur-celebrate-life-seeklogo.com"
     transform="matrix(1.3333333,0,0,-1.3333333,-152.66536,822.22394)"><path
       d="m 180.04395,257.74902 c 0,0 -3.42579,-7.80371 -9.04004,-7.80371 -5.61426,0 -6.18506,8.56446 -3.04493,14.84473 3.14014,6.28027 14.84424,14.36914 12.8462,3.80664 -0.47559,-2.47461 -1.23682,-5.13965 1.2373,-2.66504 2.47412,2.47461 5.70947,11.22949 -2.66455,11.22949 -8.37402,0 -18.36572,-13.79785 -18.36572,-22.93359 0,-9.13574 12.27539,-11.22852 17.50927,-3.42578 5.23389,7.80273 3.61573,9.42187 1.52247,6.94726 z"
       style="fill:#005d28;fill-opacity:1;fill-rule:nonzero;stroke:none"
       id="path12"
       inkscape:connector-curvature="0" /><path
       d="m 201.07422,256.60645 c -0.47559,-1.23731 -3.521,-4.75782 -6.85156,-4.75782 -5.04346,0 -4.0918,6.08985 -4.0918,6.08985 10.37256,-2.18946 17.22363,12.75195 9.23047,12.75195 -7.99317,0 -13.41748,-11.41895 -13.41748,-14.84473 0,-3.42578 1.99853,-6.85156 6.75635,-6.85156 4.75781,0 8.37402,4.28223 10.08642,6.85156 1.7124,2.56934 -1.23682,1.99805 -1.7124,0.76075 m -3.99707,11.13378 c 4.0918,0 1.71289,-8.56543 -6.28027,-7.23242 0,0 2.18847,7.23242 6.28027,7.23242 z"
       style="fill:#005d28;fill-opacity:1;fill-rule:nonzero;stroke:none"
       id="path14"
       inkscape:connector-curvature="0" /><path
       d="m 230.32422,260.23145 c -0.47559,-1.23731 -3.521,-4.75782 -6.85156,-4.75782 -5.04346,0 -4.0918,6.08985 -4.0918,6.08985 10.37256,-2.18946 17.22363,12.75195 9.23047,12.75195 -7.99317,0 -13.41748,-11.41895 -13.41748,-14.84473 0,-3.42578 1.99853,-6.85156 6.75635,-6.85156 4.75781,0 8.37402,4.28223 10.08642,6.85156 1.7124,2.56934 -1.23682,1.99805 -1.7124,0.76075 m -3.99707,11.13378 c 4.0918,0 1.71289,-8.56543 -6.28027,-7.23242 0,0 2.18847,7.23242 6.28027,7.23242 z"
       style="fill:#005d28;fill-opacity:1;fill-rule:nonzero;stroke:none"
       id="path16"
       inkscape:connector-curvature="0" /><path
       d="m 398.74219,267.43359 c -0.66309,-1.14746 -4.21973,-4.15136 -7.50879,-3.63281 -4.98145,0.78516 -3.09375,6.65235 -3.09375,6.65235 9.90527,-3.77735 18.99805,9.91503 11.10254,11.16015 -7.89551,1.24414 -15.03223,-9.1914 -15.56543,-12.57519 -0.53321,-3.38379 0.9082,-7.07911 5.6084,-7.82032 4.69922,-0.74023 8.93847,2.92676 11.03027,5.19825 2.09082,2.27148 -0.91113,2.16601 -1.57324,1.01757 m -2.21582,11.6211 c 4.04199,-0.6377 0.35937,-8.72754 -7.3291,-6.16699 0,0 3.28808,6.80371 7.3291,6.16699 z"
       style="fill:#005d28;fill-opacity:1;fill-rule:nonzero;stroke:none"
       id="path18"
       inkscape:connector-curvature="0" /><path
       d="m 323.07422,268.48145 c -0.47559,-1.23731 -3.52149,-4.75782 -6.85156,-4.75782 -5.04297,0 -4.0918,6.08985 -4.0918,6.08985 10.37305,-2.18946 17.22363,12.75195 9.23047,12.75195 -7.99317,0 -13.41797,-11.41895 -13.41797,-14.84473 0,-3.42578 1.99902,-6.85156 6.75684,-6.85156 4.75781,0 8.37402,4.28223 10.08691,6.85156 1.71191,2.56934 -1.23731,1.99805 -1.71289,0.76075 m -3.99707,11.13378 c 4.0918,0 1.71289,-8.56543 -6.28027,-7.23242 0,0 2.18847,7.23242 6.28027,7.23242 z"
       style="fill:#005d28;fill-opacity:1;fill-rule:nonzero;stroke:none"
       id="path20"
       inkscape:connector-curvature="0" /><path
       d="m 212.39795,278.7793 c 0,0 -5.42383,-17.03321 -6.56592,-21.79102 -1.14209,-4.75781 -1.52246,-7.51758 1.42725,-4.28223 2.9497,3.23536 6.375,18.17579 7.89795,22.55274 1.52295,4.37695 2.85498,8.27832 -2.75928,3.52051 z"
       style="fill:#005d28;fill-opacity:1;fill-rule:nonzero;stroke:none"
       id="path22"
       inkscape:connector-curvature="0" /><path
       d="m 242.5,272.76465 c 4.625,14.25 4.125,12.625 1.25,10.5 -2.875,-2.125 -3.625,-7 -5.25,-11 0,0 -7.25,-17.125 2.5,-17.125 9.75,0 13.875,11.875 13.875,15.5 0,3.625 -3.375,9.875 -12.375,2.125 m 6.52344,-9.30664 c -1.97656,-3.75879 -5.28711,-5.90723 -7.39405,-4.79883 -2.10644,1.10742 -2.21289,5.05273 -0.23632,8.81152 1.97656,3.75879 5.28759,5.90723 7.39404,4.79981 2.10644,-1.1084 2.2124,-5.05371 0.23633,-8.8125 z"
       style="fill:#005d28;fill-opacity:1;fill-rule:nonzero;stroke:none"
       id="path24"
       inkscape:connector-curvature="0" /><path
       d="m 265.625,275.38965 c 0,0 3.75,3.25 6.25,3.25 2.5,0 3.625,-0.375 1.75,-2 -1.875,-1.625 -2.625,-2.75 -3.25,-1.75 -0.625,1 -6.5,-1.875 -7.875,-6.25 -1.375,-4.375 -2.875,-11.375 -5.875,-11.375 -3,0 -0.125,3.625 1.125,9 1.25,5.375 4.625,12.125 6,12.125 1.375,0 2.625,0.375 1.875,-3 z"
       style="fill:#005d28;fill-opacity:1;fill-rule:nonzero;stroke:none"
       id="path26"
       inkscape:connector-curvature="0" /><path
       d="m 285.5,279.51465 c -6.125,0 -12.5,-4.625 -10.5,-5.125 2,-0.5 13.75,6.75 10.5,-2.375 0,0 -15.625,-0.625 -15.625,-9.125 0,-5.75 6.125,-6.625 12.375,-1.625 0.25,-2.625 1.625,-4.625 3.75,1 2.125,5.625 8,17.25 -0.5,17.25 m -1.75,-12.625 c 0,0 -2.25,-5.625 -6.375,-5.625 -4.125,0 -4.375,4.5 -1.125,6.25 3.25,1.75 9.25,2.125 7.5,-0.625 z"
       style="fill:#005d28;fill-opacity:1;fill-rule:nonzero;stroke:none"
       id="path28"
       inkscape:connector-curvature="0" /><path
       d="m 301.27539,277.7373 c 6.07813,1.03125 7.34961,3.02735 7.34961,3.02735 -2.37109,0.0215 -4.39941,-0.0723 -6.14453,-0.23926 0.1709,0.3916 0.26953,0.61426 0.26953,0.61426 0,0 0.875,1.875 1.75,3.375 0.875,1.5 -0.875,5.75 -2.75,1.625 -0.66406,-1.46192 -1.70801,-3.69824 -2.83105,-6.12012 -5.38672,-1.06152 -6.54395,-2.87988 -6.54395,-2.87988 1.99365,-0.0176 3.74316,0.0459 5.28906,0.16504 -1.66308,-3.61133 -3.27002,-7.17578 -3.91406,-8.91504 -1.25,-3.375 -1.125,-8.25 3.125,-8.25 7.25,0 10.375,8.125 6.25,4.625 -4.125,-3.5 -7.5,-1.125 -5.375,4.375 1.14795,2.9707 2.51172,6.22558 3.52539,8.59765 z"
       style="fill:#005d28;fill-opacity:1;fill-rule:nonzero;stroke:none"
       id="path30"
       inkscape:connector-curvature="0" /><path
       d="m 367.72363,281.34082 c 0,0 -4.23047,-9.14453 -5.80859,-13.51465 -1.5791,-4.37207 -2.19434,-6.93262 1.1875,-4.14844 3.37988,2.78418 5.32617,10.13575 7.2793,14.11622 1.95312,3.98046 3.66796,7.53027 -2.65821,3.54687 m 6.55176,11.56445 c -0.79297,0.46778 -2.23144,-0.50488 -3.21191,-2.16992 -0.98047,-1.66504 -1.13282,-3.39453 -0.33887,-3.86133 0.79297,-0.46777 2.23144,0.50489 3.21191,2.16993 0.98047,1.66503 1.13282,3.39453 0.33887,3.86132 z"
       style="fill:#005d28;fill-opacity:1;fill-rule:nonzero;stroke:none"
       id="path32"
       inkscape:connector-curvature="0" /><path
       d="m 354.33398,288.38965 c 0,0 -4.66601,-7.66602 -7,-13.83301 -2.33398,-6.16699 -4,-10.16601 3,-8.33301 7,1.83301 11.16602,2.66602 7.16602,-0.16699 -4,-2.83301 -7.49902,-3.49902 -11.16602,-3.33301 -3.66699,0.16602 -8.66601,1 -5,8.83301 3.66602,7.83301 7.33301,19.00098 11.33301,19.16699 4,0.16602 2.50098,-1.00097 1.66699,-2.33398 z"
       style="fill:#005d28;fill-opacity:1;fill-rule:nonzero;stroke:none"
       id="path34"
       inkscape:connector-curvature="0" /><path
       d="m 388.28125,290.66504 c -3.55957,-1.8291 -6.19043,-3.49121 -9.52441,-9.81348 -4.2002,-0.33789 -5.39258,-1.76367 -5.39258,-1.76367 1.55762,-0.2959 2.95215,-0.49414 4.21094,-0.62012 -0.0801,-0.16894 -0.15723,-0.32324 -0.23731,-0.49707 0,0 -3.06348,-6.12793 -4.81445,-10.17675 -1.75098,-4.04883 0.21777,-9.08301 2.73535,-3.39258 1.41797,3.20508 4.15527,9.0498 6.64746,13.91504 4.83008,0.21191 6.1543,1.81445 6.1543,1.81445 -1.83594,0.34863 -3.42969,0.55469 -4.85352,0.67285 1.4043,2.625 2.62402,4.67481 3.32324,5.37402 2.08008,2.07911 4.70606,2.84668 4.81543,0.65723 0.10938,-2.18945 2.18848,-1.31348 3.61133,0.54688 1.42285,1.86035 -2.62695,5.36328 -6.67578,3.2832 z"
       style="fill:#005d28;fill-opacity:1;fill-rule:nonzero;stroke:none"
       id="path36"
       inkscape:connector-curvature="0" /><path
       d="m 419.78418,286.10449 c 0,0 -5.91016,-9.27832 -8.11426,-13.71289 -2.20605,-4.43555 -3.06543,-7.03418 1.65918,-4.20898 4.7207,2.82519 7.43945,10.28418 10.16797,14.32324 2.72852,4.03809 5.12402,7.63965 -3.71289,3.59863 m -8.91797,-22.21679 c -1.2373,0.51074 -3.48242,-0.55176 -5.01269,-2.37012 -1.53028,-1.81934 -1.76758,-3.70801 -0.52832,-4.21875 1.2373,-0.51074 3.48242,0.55176 5.01269,2.37109 1.53027,1.81836 1.76758,3.70801 0.52832,4.21778 z"
       style="fill:#005d28;fill-opacity:1;fill-rule:nonzero;stroke:none"
       id="path38"
       inkscape:connector-curvature="0" /><path
       d="m 370,251.88965 c 0,0 -117.75,7.5 -198.5,-24 0,0 -6.22217,-2.64746 -4.70312,-6.26856 1.51904,-3.62109 5.92773,-2.2998 5.92773,-2.2998 C 252.03564,254.28711 370,251.88965 370,251.88965"
       style="fill:#80cc28;fill-opacity:1;fill-rule:nonzero;stroke:none"
       id="path40"
       inkscape:connector-curvature="0" /><path
       d="m 239.56152,311.58984 c -3.11181,1.49707 -0.68506,8.20996 4.6875,17.80371 4.37452,7.83301 8.73047,11.7754 12.84668,11.7754 0.50879,0 1.08496,-0.11426 1.8003,-0.90723 0.66162,-0.73242 0.96338,-1.43555 0.96338,-2.21094 0,-2.1543 -1.16114,-6.53223 -6.71485,-15.10547 -4.88525,-7.53515 -11.03857,-12.57617 -13.58301,-11.35547 m 65.77832,8.43262 c -5.92675,-8.71289 -7.87841,-9.23047 -9.97216,-9.39062 -1.20118,-0.10157 -2.08204,0.27343 -2.76075,0.86718 -0.40283,0.34375 -0.84033,1.01856 -0.77636,1.95313 0,0 0.13037,1.13379 0.24365,1.58496 0.12402,0.45019 1.75195,6.15625 4.45703,12.20215 2.7041,6.05469 3.7832,7.58203 5.8623,10.0039 3.48633,4.06641 7.32715,5.76465 9.24708,4.70801 3.77246,-2.07324 -1.77149,-15.25 -6.30079,-21.92871 m 20.57813,30.91895 -0.004,0.004 c -2.39648,2.58887 -5.98926,2.88086 -9.39746,2.88086 -3.59375,0 -6.94726,-0.51953 -11.52441,-3.58691 5.72949,14.12402 14.78418,33.42676 14.87597,33.63281 l 0.44629,0.93945 -1.04785,-0.10156 c -0.0537,-0.002 -5.52637,-0.55859 -16.55664,-3.13086 l -0.31055,-0.0801 -0.8125,-2.19043 -23.00244,-59.34961 c 0,0 -1.68701,-3.59277 -6.70947,-6.47949 -2.62744,-1.50488 -4.10547,-1.69043 -4.98242,-1.81738 -0.84473,-0.15625 -1.07276,0.64453 -0.96973,0.9209 0.66406,1.81543 2.53369,6.8623 2.53369,6.8623 5.57276,15.45801 9.03711,24.7666 10.58448,28.46289 l 2.02246,4.83399 h -15.18604 c 0,0 -0.26465,-0.48731 -0.36426,-0.65821 -1.74804,1.04004 -3.79931,1.64258 -6.20068,1.64258 -3.37109,0 -7.70996,-1.90234 -13.64941,-5.99707 -6.10743,-4.24707 -11.35596,-9.18457 -15.63428,-14.69238 -5.32813,-6.9707 -8.02832,-13.94238 -8.02832,-20.71191 0,-3.12012 0.73193,-5.83204 2.18066,-8.06934 1.19727,-1.87402 3.56641,-4.11523 8.02246,-4.11523 5.77881,0 11.36426,2.13183 16.63526,6.20898 0.40722,-1.39551 1.27783,-2.68652 2.9375,-3.84863 2.16455,-1.54102 5.20703,-2.28516 6.43164,-2.34668 1.22754,-0.0557 5.74853,0.15722 9.75488,2.19922 3.39795,1.73144 5.50342,3.96582 7.40381,6.86132 0.98437,-2.36328 2.27881,-4.36816 3.88965,-5.94531 2.09765,-2.07715 4.74121,-3.1289 7.84619,-3.1289 8.69775,0 17.82617,4.24414 27.125,12.5996 10.04101,9.00098 15.14258,18.76661 15.14258,29.02832 0,3.57715 -1.16309,6.66016 -3.45215,9.17286"
       style="fill:#005d28;fill-opacity:1;fill-rule:nonzero;stroke:none"
       id="path42"
       inkscape:connector-curvature="0" /><path
       d="m 427.15039,349.46777 v 0 c -2.08105,2.19336 -5.01953,3.30469 -8.73242,3.30469 -2.80078,0 -5.64453,-1.24805 -8.59961,-3.33301 0.33594,0.94434 0.96484,2.68457 0.96484,2.68457 l -15.82422,0.0156 -12.19335,-35.99805 c -1.70997,-1.78808 -3.83008,-3.40137 -4.75,-3.94531 -1.9834,-1.14258 -4.80274,-2.19531 -7.18458,-1.24121 0,0 -1.14843,0.57324 -0.89257,1.26074 0.78125,2.27344 4.48047,13.0459 4.48047,13.0459 3.25488,9.52441 6.12988,17.43652 8.32617,22.89355 l 1.91601,4.77832 h -16.0166 l -0.87109,-2.25976 c -2.82617,-7.41992 -5.17871,-13.01856 -7.18262,-17.13184 -3.14355,-6.54394 -6.29297,-11.59668 -9.34863,-15.02148 -2.81446,-3.10156 -5.33008,-5.59278 -8.51953,-5.5791 -0.25391,0 -0.542,-0.002 -0.77832,0.0517 -0.44336,0.1045 -0.78809,0.64942 -0.62305,1.00196 2.40625,6.29394 15.33301,38.93847 15.33301,38.93847 h -16.36231 c 0,0 -15.64453,-39.31543 -15.9082,-42.79882 -0.21094,-2.86426 1.29199,-5.27832 3.30078,-7.17676 1.99316,-1.87403 4.43457,-2.81738 7.25195,-2.81738 5.19825,0 11.10254,3.02636 17.91602,8.9541 -0.007,-0.0234 -0.0566,-0.14453 -0.0566,-0.14453 0,-0.0147 -0.3125,-1.59473 -0.3125,-1.59473 0,-1.50879 0.84961,-3.67481 4.8789,-5.48145 2.60645,-1.14941 5.0625,-1.73339 7.28321,-1.73339 3.85937,0 7.06445,0.54785 11.13867,3.29394 1.75293,1.17773 2.9668,2.37695 3.90137,3.58008 l -2.33203,-6.87402 h 15.77929 l 0.75196,2.49414 c 1.92675,6.42773 3.83593,11.99804 5.68359,16.54589 2.59473,6.54493 5.21289,11.82715 7.79199,15.71094 2.96192,4.42871 4.58985,5.06348 6.01465,5.62598 0,0 1.07422,0.51953 3.11523,0.72363 1.72461,0.1709 3.45508,-1.14258 3.9502,-2.16406 0.54687,-1.11035 -0.14355,-3.00781 -0.7793,-4.57227 -0.57617,-1.41211 -0.98437,-2.42871 -0.53711,-3.08984 0.13672,-0.21094 0.42578,-0.45703 0.96973,-0.45703 3.125,0 5.74707,1.16211 7.58398,3.34277 1.69727,2.04297 2.55567,4.4834 2.55567,7.25684 0,3.12304 -1.03906,5.78125 -3.08301,7.91015"
       style="fill:#005d28;fill-opacity:1;fill-rule:nonzero;stroke:none"
       id="path44"
       inkscape:connector-curvature="0" /><path
       d="m 198.69678,386.67285 0.0249,-0.0186 c -0.15137,0.0967 -15.49121,9.22168 -30.30957,10.02832 -17.56494,0.95508 -48.68018,-6.7793 -53.91309,-41.80469 l 1.17237,-0.23535 c 4.12597,15.5918 18.99023,30.35547 35.34033,35.10156 9.88672,2.85742 20.95996,1.75293 31.17334,-3.12891 12.24267,-6.10156 22.1709,-20.46484 23.60107,-34.14941 0.82764,-7.95215 -0.7456,-19.45801 -12.9497,-29.08203 -10.18702,-8.17188 -27.76123,-11.31836 -34.18702,-6.12305 -2.99951,2.42871 -2.16699,6.26563 -0.34375,11.80078 l 20.09522,50.63379 -0.19287,0.2627 c -0.38574,0.5332 -9.55762,13.06933 -18.32129,9.0459 -2.8125,-1.2959 -21.56152,-62.7461 -27.2417,-81.54981 l -0.16113,-0.5293 0.5205,-0.19335 c 26.86719,-9.82813 50.23829,-10.19629 69.47315,-1.07227 14.39258,5.93066 24.63037,20.67383 25.44678,36.67773 0.89795,17.75782 -9.7544,33.91114 -29.22754,44.33594"
       style="fill:#005d28;fill-opacity:1;fill-rule:nonzero;stroke:none"
       id="path46"
       inkscape:connector-curvature="0" /><path
       d="m 154.08105,500.79053 c -0.88232,1.8291 -4.78808,8.62402 -11.32812,10.45801 -6.68457,1.87158 -12.80029,-0.79639 -15.74121,-2.91602 l 27.06933,-7.54199"
       style="fill:#005d28;fill-opacity:1;fill-rule:nonzero;stroke:none"
       id="path48"
       inkscape:connector-curvature="0" /><path
       d="m 139.32617,497.78857 c 6.09863,-1.73681 12.55713,1.55176 14.75488,3.00196 l -27.06933,7.54199 c 1.94482,-3.24072 4.70312,-8.37598 12.31445,-10.54395"
       style="fill:#80cc28;fill-opacity:1;fill-rule:nonzero;stroke:none"
       id="path50"
       inkscape:connector-curvature="0" /><path
       d="m 159.26465,514.76465 c 0.30762,2.4375 0.46875,9.94824 -3.93994,14.91406 -4.69532,5.28369 -11.05762,6.32959 -14.68701,6.02295 l 18.62695,-20.93701"
       style="fill:#005d28;fill-opacity:1;fill-rule:nonzero;stroke:none"
       id="path52"
       inkscape:connector-curvature="0" /><path
       d="m 145.29443,520.104 c 4.31104,-4.61816 11.32569,-5.4497 13.97022,-5.33935 l -18.62695,20.93701 c -0.0322,-3.7666 -0.71582,-9.84131 4.65673,-15.59766"
       style="fill:#80cc28;fill-opacity:1;fill-rule:nonzero;stroke:none"
       id="path54"
       inkscape:connector-curvature="0" /><path
       d="m 179.40967,445.84277 c -2.80713,1.02246 -13.26074,2.90674 -19.92237,-1.72754 -6.84814,-4.75097 -8.92529,-12.72656 -9.36425,-16.96142 l 29.28662,18.68896"
       style="fill:#80cc28;fill-opacity:1;fill-rule:nonzero;stroke:none"
       id="path56"
       inkscape:connector-curvature="0" /><path
       d="m 170.01367,429.06006 c 6.94531,4.4668 9.25391,13.36182 9.39502,16.78271 l -29.28564,-18.68896 c 5.1958,-1.48731 13.18017,-2.40332 19.89062,1.90625"
       style="fill:#005d28;fill-opacity:1;fill-rule:nonzero;stroke:none"
       id="path58"
       inkscape:connector-curvature="0" /><path
       d="m 177.71094,455.33252 c -1.73145,2.68408 -10.89942,12.27393 -21.04492,13.1499 -9.78956,0.83496 -18.54444,-3.31885 -22.37696,-6.4917 l 43.42188,-6.6582"
       style="fill:#80cc28;fill-opacity:1;fill-rule:nonzero;stroke:none"
       id="path60"
       inkscape:connector-curvature="0" /><path
       d="m 154.24658,449.08545 c 9.98877,-1.78272 20.03174,3.47412 23.46436,6.24707 l -43.42188,6.6582 c 4.34473,-5.35009 10.47852,-11.21045 19.95752,-12.90527"
       style="fill:#005d28;fill-opacity:1;fill-rule:nonzero;stroke:none"
       id="path62"
       inkscape:connector-curvature="0" /><path
       d="m 252.44092,538.62744 c -1.13672,2.64795 -6.69629,12.13574 -15.59278,15.48242 -9.76709,3.67871 -18.96093,1.03662 -23.16748,-1.35742 l 38.76026,-14.125"
       style="fill:#80cc28;fill-opacity:1;fill-rule:nonzero;stroke:none"
       id="path64"
       inkscape:connector-curvature="0" /><path
       d="m 229.52148,537.2251 c 8.78614,-3.54737 19.06006,-0.50928 22.91944,1.40234 l -38.76026,14.125 c 3.02393,-5.66113 7.5083,-12.16113 15.84082,-15.52734"
       style="fill:#005d28;fill-opacity:1;fill-rule:nonzero;stroke:none"
       id="path66"
       inkscape:connector-curvature="0" /><path
       d="m 201.70264,432.15918 c 0.20507,3.09424 -0.0483,9.91846 -4.521,15.0127 -4.82031,5.48681 -11.26953,6.57373 -14.71045,6.77148 l 19.23145,-21.78418"
       style="fill:#80cc28;fill-opacity:1;fill-rule:nonzero;stroke:none"
       id="path68"
       inkscape:connector-curvature="0" /><path
       d="m 187.33008,438.56055 c 4.4668,-5.11328 11.53564,-6.6753 14.37256,-6.40137 l -19.23145,21.78418 c -0.32178,-3.75684 0.53906,-10.44385 4.85889,-15.38281"
       style="fill:#005d28;fill-opacity:1;fill-rule:nonzero;stroke:none"
       id="path70"
       inkscape:connector-curvature="0" /><path
       d="m 203.95996,459.229 c -0.94433,2.43848 -4.24951,9.03467 -10.50488,11.68946 -6.74463,2.86914 -12.98779,1.24951 -16.18653,-0.0142 l 26.69141,-11.6753"
       style="fill:#80cc28;fill-opacity:1;fill-rule:nonzero;stroke:none"
       id="path72"
       inkscape:connector-curvature="0" /><path
       d="m 187.51953,459.35107 c 6.75928,-3.32324 13.98291,-1.56103 16.44043,-0.12304 l -26.68994,11.67627 c 1.46777,-3.47364 4.36133,-8.65137 10.24951,-11.55323"
       style="fill:#005d28;fill-opacity:1;fill-rule:nonzero;stroke:none"
       id="path74"
       inkscape:connector-curvature="0" /><path
       d="m 176.60254,482.74512 c -1.61572,2.01904 -6.93262,7.73291 -14.20508,8.26318 -7.79785,0.57178 -13.28223,-3.9873 -15.86182,-6.50439 l 30.0669,-1.75879"
       style="fill:#005d28;fill-opacity:1;fill-rule:nonzero;stroke:none"
       id="path76"
       inkscape:connector-curvature="0" /><path
       d="m 161.67578,476.16748 c 6.89063,-0.37939 13.0874,4.69775 14.92676,6.57764 l -30.06543,1.75879 c 2.59033,-2.7544 7.24023,-7.90039 15.13867,-8.33643"
       style="fill:#80cc28;fill-opacity:1;fill-rule:nonzero;stroke:none"
       id="path78"
       inkscape:connector-curvature="0" /><path
       d="m 270.93213,569.07178 c 1.54834,2.60693 5.58203,10.66943 3.0791,18.71972 -2.69434,8.63623 -9.99316,12.55518 -13.88379,14.24756 l 10.80469,-32.96728"
       style="fill:#005d28;fill-opacity:1;fill-rule:nonzero;stroke:none"
       id="path80"
       inkscape:connector-curvature="0" /><path
       d="m 257.58203,582.21436 c 2.51563,-7.57276 10.48877,-11.9668 13.34912,-13.14356 l -10.80273,32.96924 c -1.94776,-3.97363 -5.4292,-11.1416 -2.54639,-19.82568"
       style="fill:#80cc28;fill-opacity:1;fill-rule:nonzero;stroke:none"
       id="path82"
       inkscape:connector-curvature="0" /><path
       d="m 301.75098,584.47705 c 1.76172,2.28613 6.37988,9.47022 4.87793,17.27246 -1.60547,8.36719 -7.97803,12.94141 -11.47901,14.91846 l 6.60108,-32.19092"
       style="fill:#80cc28;fill-opacity:1;fill-rule:nonzero;stroke:none"
       id="path84"
       inkscape:connector-curvature="0" /><path
       d="m 290.49365,598.45361 c 1.84571,-8.1792 9.25049,-12.5874 11.25733,-13.97656 l -6.60108,32.19092 c -2.34668,-3.21729 -6.52929,-9.88916 -4.65625,-18.21436"
       style="fill:#005d28;fill-opacity:1;fill-rule:nonzero;stroke:none"
       id="path86"
       inkscape:connector-curvature="0" /><path
       d="m 304.75488,545.97656 c 2.24512,1.75684 8.19922,8.5542 7.82617,16.13819 -0.3457,7.03906 -6.458,13.18994 -9.81347,15.48779 l 1.9873,-31.62598"
       style="fill:#80cc28;fill-opacity:1;fill-rule:nonzero;stroke:none"
       id="path88"
       inkscape:connector-curvature="0" /><path
       d="m 295.34619,560.91113 c 0.72852,-7.9873 7.52393,-13.37451 9.40869,-14.93652 l -1.9873,31.62695 c -2.90528,-2.7749 -8.16895,-8.55566 -7.42139,-16.69043"
       style="fill:#005d28;fill-opacity:1;fill-rule:nonzero;stroke:none"
       id="path90"
       inkscape:connector-curvature="0" /><path
       d="m 315.78418,525.97607 c 2.53223,1.12793 9.55566,5.2295 11.27441,13.41602 1.41407,6.75635 -2.73242,14.06201 -5.27734,17.04248 l -5.99707,-30.4585"
       style="fill:#80cc28;fill-opacity:1;fill-rule:nonzero;stroke:none"
       id="path92"
       inkscape:connector-curvature="0" /><path
       d="m 310.75586,542.40283 c -1.25293,-7.23779 3.66992,-14.49414 5.02832,-16.42676 l 5.99707,30.4585 c -3.38379,-1.92969 -9.65625,-6.146 -11.02539,-14.03174"
       style="fill:#005d28;fill-opacity:1;fill-rule:nonzero;stroke:none"
       id="path94"
       inkscape:connector-curvature="0" /><path
       d="m 345.54883,487.35693 c 2.83691,-0.3125 11.24805,-0.25976 17.01074,6.09131 4.75293,5.23633 4.8877,13.89942 4.1543,17.86133 l -21.16504,-23.95264"
       style="fill:#80cc28;fill-opacity:1;fill-rule:nonzero;stroke:none"
       id="path96"
       inkscape:connector-curvature="0" /><path
       d="m 349.54199,504.56152 c -4.77636,-5.81591 -4.21777,-14.78857 -3.99316,-17.20459 l 21.16504,23.95166 c -3.42871,0.30079 -11.57813,0.0664 -17.17188,-6.74707"
       style="fill:#005d28;fill-opacity:1;fill-rule:nonzero;stroke:none"
       id="path98"
       inkscape:connector-curvature="0" /><path
       d="m 404.86035,504.73584 c 2.91016,-0.20557 11.33692,0.36865 17.56836,6.58057 5.18359,5.18164 5.78223,14.12939 5.33496,18.1206 l -22.90332,-24.70117"
       style="fill:#80cc28;fill-opacity:1;fill-rule:nonzero;stroke:none"
       id="path100"
       inkscape:connector-curvature="0" /><path
       d="m 409.74316,522.42871 c -5.42285,-6.04297 -5.0625,-15.18652 -4.88281,-17.69287 l 22.90332,24.7002 c -3.54394,0.38671 -12.61523,-0.9878 -18.02051,-7.00733"
       style="fill:#005d28;fill-opacity:1;fill-rule:nonzero;stroke:none"
       id="path102"
       inkscape:connector-curvature="0" /><path
       d="m 354.20117,535.27637 c 2.64649,0.61377 10.61914,3.54394 13.95117,10.24511 3.16309,6.36231 1.58008,14.08252 -0.0635,17.57715 l -13.8877,-27.82226"
       style="fill:#80cc28;fill-opacity:1;fill-rule:nonzero;stroke:none"
       id="path104"
       inkscape:connector-curvature="0" /><path
       d="m 353.92578,552.21826 c -3.30273,-6.83496 -0.51758,-14.7539 0.27539,-16.94287 l 13.8877,27.82324 c -3.72949,-0.97558 -10.71973,-3.76172 -14.16309,-10.88037"
       style="fill:#005d28;fill-opacity:1;fill-rule:nonzero;stroke:none"
       id="path106"
       inkscape:connector-curvature="0" /><path
       d="m 347.41992,565.00195 c 2.71485,0.33594 11.08692,2.41602 15.23926,8.81983 3.93652,6.07812 3.09375,13.92334 2.14062,17.75537 l -17.37988,-26.5752"
       style="fill:#80cc28;fill-opacity:1;fill-rule:nonzero;stroke:none"
       id="path108"
       inkscape:connector-curvature="0" /><path
       d="m 349.22168,582.2251 c -4.14063,-6.54346 -2.3291,-14.93604 -1.80176,-17.22217 l 17.37988,26.57275 c -3.84179,-0.5957 -11.26855,-2.5332 -15.57812,-9.35058"
       style="fill:#005d28;fill-opacity:1;fill-rule:nonzero;stroke:none"
       id="path110"
       inkscape:connector-curvature="0" /><path
       d="m 376.86328,550.98047 c 2.27344,-0.42529 9.53418,-0.90527 14.4668,3.17724 4.6748,3.87696 5.93262,10.40284 6.11328,13.72364 l -20.58008,-16.90088"
       style="fill:#80cc28;fill-opacity:1;fill-rule:nonzero;stroke:none"
       id="path112"
       inkscape:connector-curvature="0" /><path
       d="m 382.57422,564.36572 c -4.95117,-4.19482 -5.56836,-11.41064 -5.71094,-13.38623 l 20.58008,16.90186 c -3.23926,0.51562 -9.70215,0.86133 -14.86914,-3.51563"
       style="fill:#005d28;fill-opacity:1;fill-rule:nonzero;stroke:none"
       id="path114"
       inkscape:connector-curvature="0" /><path
       d="m 404.07227,532.7168 c 2.37304,0.52441 9.70019,2.40527 13.05371,9.06445 3.28027,6.50537 1.65722,12.67676 0.53515,15.99902 L 404.07227,532.7168"
       style="fill:#80cc28;fill-opacity:1;fill-rule:nonzero;stroke:none"
       id="path116"
       inkscape:connector-curvature="0" /><path
       d="m 404.37012,548.27637 c -3.18653,-6.15088 -1.14453,-13.03711 -0.29785,-15.55957 l 13.58886,25.06347 c -3.34961,-0.83496 -9.97168,-3.09765 -13.29101,-9.5039"
       style="fill:#005d28;fill-opacity:1;fill-rule:nonzero;stroke:none"
       id="path118"
       inkscape:connector-curvature="0" /><path
       d="m 384.31055,498.15039 c 2.43945,0.57422 9.94824,2.63086 13.29394,9.5415 3.2627,6.74707 1.49512,13.06934 0.28418,16.47266 l -13.57812,-26.01416"
       style="fill:#80cc28;fill-opacity:1;fill-rule:nonzero;stroke:none"
       id="path120"
       inkscape:connector-curvature="0" /><path
       d="m 384.36523,514.16309 c -3.17773,-6.38428 -0.95996,-13.4336 -0.0547,-16.0127 l 13.57812,26.01416 c -3.43847,-0.91357 -10.21387,-3.34961 -13.52344,-10.00146"
       style="fill:#005d28;fill-opacity:1;fill-rule:nonzero;stroke:none"
       id="path122"
       inkscape:connector-curvature="0" /><path
       d="m 427.83887,510.78711 c 2.10156,-0.70752 8.70117,-2.65479 14.51953,0.96289 5.68262,3.53467 7.39062,9.0874 8.12402,12.20117 l -22.64355,-13.16406"
       style="fill:#80cc28;fill-opacity:1;fill-rule:nonzero;stroke:none"
       id="path124"
       inkscape:connector-curvature="0" /><path
       d="m 435.56641,522.74707 c -5.44141,-3.29785 -7.16407,-9.60303 -7.72754,-11.95996 l 22.64355,13.16211 c -3.01172,0.91113 -9.25,2.23926 -14.91601,-1.20215"
       style="fill:#005d28;fill-opacity:1;fill-rule:nonzero;stroke:none"
       id="path126"
       inkscape:connector-curvature="0" /><path
       d="m 417.49121,488.09814 c 1.90723,-1.26562 7.91797,-4.77001 14.78809,-2.92431 6.85156,1.83545 9.46386,7.04346 11.46093,10.02539 l -26.24902,-7.10108"
       style="fill:#80cc28;fill-opacity:1;fill-rule:nonzero;stroke:none"
       id="path128"
       inkscape:connector-curvature="0" /><path
       d="m 428.4834,497.99707 c -6.3457,-1.84326 -9.78809,-7.69141 -10.99219,-9.89893 l 26.24707,7.10108 c -2.76465,1.72168 -8.64648,4.72412 -15.25488,2.79785"
       style="fill:#005d28;fill-opacity:1;fill-rule:nonzero;stroke:none"
       id="path130"
       inkscape:connector-curvature="0" /><path
       d="m 440.41797,483.06836 c 1.83594,-2.03711 7.83301,-7.80371 16.30762,-7.7041 8.67285,0.10058 13.41699,4.93066 16.22461,8.38086 l -32.53223,-0.67676"
       style="fill:#005d28;fill-opacity:1;fill-rule:nonzero;stroke:none"
       id="path132"
       inkscape:connector-curvature="0" /><path
       d="m 456.04688,491.51807 c -7.86426,-0.33155 -13.59864,-6.20166 -15.62891,-8.44971 l 32.53223,0.67676 c -2.69434,2.81543 -8.71094,8.11426 -16.90332,7.77295"
       style="fill:#80cc28;fill-opacity:1;fill-rule:nonzero;stroke:none"
       id="path134"
       inkscape:connector-curvature="0" /><path
       d="m 415.96582,484.00488 c -0.16602,-2.26611 -0.0811,-9.41845 4.97168,-14.38623 4.95313,-4.87109 11.20508,-4.63769 14.55762,-4.6792 l -19.5293,19.06543"
       style="fill:#005d28;fill-opacity:1;fill-rule:nonzero;stroke:none"
       id="path136"
       inkscape:connector-curvature="0" /><path
       d="m 430.37207,479.43262 c -4.75879,4.54931 -11.87305,4.63232 -14.40625,4.57373 l 19.5293,-19.06787 c 0.13965,3.22656 -0.15821,9.76172 -5.12305,14.49414"
       style="fill:#80cc28;fill-opacity:1;fill-rule:nonzero;stroke:none"
       id="path138"
       inkscape:connector-curvature="0" /><path
       d="m 366.61914,459.92627 c 2.21484,0.68799 8.9502,3.36084 11.59668,9.95019 2.58887,6.43653 0.47168,11.98194 -0.8623,15.05127 l -10.73438,-25.00146"
       style="fill:#80cc28;fill-opacity:1;fill-rule:nonzero;stroke:none"
       id="path140"
       inkscape:connector-curvature="0" /><path
       d="m 365.57813,475.02686 c -2.5293,-6.08985 0.0361,-12.76807 1.04101,-15.10059 l 10.73438,25.00146 c -3.11622,-1.06054 -9.13965,-3.54882 -11.77539,-9.90087"
       style="fill:#005d28;fill-opacity:1;fill-rule:nonzero;stroke:none"
       id="path142"
       inkscape:connector-curvature="0" /><path
       d="m 401.39648,450.07373 c 0.89454,2.29688 1.73145,9.86377 -1.88281,15.04297 -3.76953,5.41797 -9.97168,6.99072 -13.25879,7.55859 l 15.1416,-22.60156"
       style="fill:#80cc28;fill-opacity:1;fill-rule:nonzero;stroke:none"
       id="path144"
       inkscape:connector-curvature="0" /><path
       d="m 388.54785,457.04736 c 3.58203,-4.92138 10.36231,-6.53759 12.84863,-6.97363 l -15.1416,22.60156 c -0.90332,-2.97021 -1.77832,-10.03466 2.29297,-15.62793"
       style="fill:#005d28;fill-opacity:1;fill-rule:nonzero;stroke:none"
       id="path146"
       inkscape:connector-curvature="0" /><path
       d="m 373.30957,564.47168 c 2.64258,0.52686 10.40918,3.13818 14.10059,9.73193 3.48437,6.22412 1.97754,13.94629 0.75879,17.63575 l -14.85938,-27.36768"
       style="fill:#80cc28;fill-opacity:1;fill-rule:nonzero;stroke:none"
       id="path148"
       inkscape:connector-curvature="0" /><path
       d="m 373.71191,581.50684 c -3.59375,-6.72461 -1.23242,-14.64014 -0.40234,-17.03516 l 14.85938,27.36865 c -3.73536,-0.85156 -10.71778,-3.32031 -14.45704,-10.33349"
       style="fill:#005d28;fill-opacity:1;fill-rule:nonzero;stroke:none"
       id="path150"
       inkscape:connector-curvature="0" /><path
       d="m 244.05811,587.16162 c 1.34814,2.59082 3.47753,8.87061 1.30322,14.59815 -2.46045,6.48193 -8.52197,9.39697 -11.74365,10.49169 l 10.44043,-25.08984"
       style="fill:#005d28;fill-opacity:1;fill-rule:nonzero;stroke:none"
       id="path152"
       inkscape:connector-curvature="0" /><path
       d="m 232.83203,596.52344 c 2.45313,-5.4209 8.75098,-8.42139 11.22608,-9.36182 l -10.44043,25.09131 c -1.4292,-3.36133 -3.83985,-8.97266 -0.78565,-15.72949"
       style="fill:#80cc28;fill-opacity:1;fill-rule:nonzero;stroke:none"
       id="path154"
       inkscape:connector-curvature="0" /><path
       d="m 287.68311,560.51758 c 2.12597,2.21338 6.04492,7.86328 5.51953,14.21435 -0.58887,7.18604 -5.92383,11.81348 -8.87842,13.82569 l 3.35889,-28.04004"
       style="fill:#005d28;fill-opacity:1;fill-rule:nonzero;stroke:none"
       id="path156"
       inkscape:connector-curvature="0" /><path
       d="m 278.93701,573.00684 c 0.89502,-6.11817 6.50781,-10.8545 8.7461,-12.48926 l -3.35889,28.04004 c -2.43555,-2.96338 -6.50635,-7.91455 -5.38721,-15.55078"
       style="fill:#80cc28;fill-opacity:1;fill-rule:nonzero;stroke:none"
       id="path158"
       inkscape:connector-curvature="0" /><path
       d="m 318.08398,568.51904 c 2.45313,1.5669 7.33106,5.9751 8.32325,11.96924 1.1289,6.7876 -2.64258,12.36621 -4.86719,14.89502 l -3.45606,-26.86426"
       style="fill:#80cc28;fill-opacity:1;fill-rule:nonzero;stroke:none"
       id="path160"
       inkscape:connector-curvature="0" /><path
       d="m 313.02148,582.13379 c -0.60351,-5.86865 3.40625,-11.59473 5.0625,-13.61475 l 3.45704,26.86426 c -2.91016,-2.19043 -7.76954,-5.92383 -8.51954,-13.24951"
       style="fill:#005d28;fill-opacity:1;fill-rule:nonzero;stroke:none"
       id="path162"
       inkscape:connector-curvature="0" /><path
       d="m 329.22754,556.08936 c 2.22168,0.89111 6.89844,3.78173 8.68457,8.44433 2.13672,5.58057 -0.25195,10.67481 -1.65332,13.05713 l -7.03125,-21.50146"
       style="fill:#80cc28;fill-opacity:1;fill-rule:nonzero;stroke:none"
       id="path164"
       inkscape:connector-curvature="0" /><path
       d="m 327.21094,567.7998 c -1.31934,-4.65917 0.99511,-9.83105 2.0166,-11.71044 l 7.03125,21.50146 c -2.68945,-1.32471 -7.32031,-3.66455 -9.04785,-9.79102"
       style="fill:#005d28;fill-opacity:1;fill-rule:nonzero;stroke:none"
       id="path166"
       inkscape:connector-curvature="0" /><path
       d="m 336.2666,526.55566 c 2.45996,0.96534 7.70508,3.9834 9.66602,9.09327 2.34277,6.10986 -0.19239,11.7666 -1.76563,14.38183 l -7.90039,-23.4751"
       style="fill:#80cc28;fill-opacity:1;fill-rule:nonzero;stroke:none"
       id="path168"
       inkscape:connector-curvature="0" /><path
       d="m 334.03027,539.28516 c -1.44336,-5.11182 1.09473,-10.66114 2.23633,-12.73047 l 7.90039,23.47607 c -2.97363,-1.43945 -8.24609,-4.0332 -10.13672,-10.7456"
       style="fill:#005d28;fill-opacity:1;fill-rule:nonzero;stroke:none"
       id="path170"
       inkscape:connector-curvature="0" /><path
       d="m 246.75977,556.46875 c 0.9624,6.87842 -0.62354,13.23535 -4.47559,17.80518 -4.85254,5.75732 -13.37598,7.49316 -17.10303,7.2124 l 21.57862,-25.01758"
       style="fill:#005d28;fill-opacity:1;fill-rule:nonzero;stroke:none"
       id="path172"
       inkscape:connector-curvature="0" /><path
       d="m 229.64063,563.87061 c 4.0205,-4.40381 8.8789,-6.89795 17.12011,-7.40186 l -21.58105,25.01758 c -0.4458,-3.5791 -0.55469,-12.12549 4.46094,-17.61572"
       style="fill:#80cc28;fill-opacity:1;fill-rule:nonzero;stroke:none"
       id="path174"
       inkscape:connector-curvature="0" /><path
       d="m 267.98682,502.7085 c 2.87451,6.00341 3.76757,12.67187 1.49414,17.90234 -3.40576,7.81299 -10.74317,10.70459 -14.22803,11.50684 l 12.73389,-29.40918"
       style="fill:#005d28;fill-opacity:1;fill-rule:nonzero;stroke:none"
       id="path176"
       inkscape:connector-curvature="0" /><path
       d="m 254.14307,514.68164 c 2.38964,-5.16113 6.46435,-9.16455 13.84472,-11.97314 l -12.7334,29.40918 c -1.44921,-3.13623 -4.09326,-10.99122 -1.11132,-17.43604"
       style="fill:#80cc28;fill-opacity:1;fill-rule:nonzero;stroke:none"
       id="path178"
       inkscape:connector-curvature="0" /><path
       d="m 336.30762,583.4209 c 5.53711,2.21094 10.07422,5.71728 11.9834,10.65039 2.37304,6.11572 -0.32129,13.80371 -2.19239,16.56885 l -9.79101,-27.21924"
       style="fill:#005d28;fill-opacity:1;fill-rule:nonzero;stroke:none"
       id="path180"
       inkscape:connector-curvature="0" /><path
       d="m 333.98535,599.86426 c -1.91894,-4.96387 -0.9541,-9.88819 2.32227,-16.44336 l 9.79101,27.22021 c -3.41211,-1.04004 -9.75,-4.63183 -12.11328,-10.77685"
       style="fill:#80cc28;fill-opacity:1;fill-rule:nonzero;stroke:none"
       id="path182"
       inkscape:connector-curvature="0" /><path
       d="m 288.08789,521.43799 c 3.62012,5.81836 5.92432,12.68945 4.49268,18.18213 -2.39649,9.1831 -10.26758,13.10449 -13.63428,14.5122 l 9.1416,-32.69433"
       style="fill:#005d28;fill-opacity:1;fill-rule:nonzero;stroke:none"
       id="path184"
       inkscape:connector-curvature="0" /><path
       d="m 274.77783,534.80566 c 1.73389,-5.78564 6.66113,-10.42089 13.31006,-13.36767 l -9.1416,32.69433 c -2.92139,-4.15185 -6.3335,-12.10498 -4.16846,-19.32666"
       style="fill:#80cc28;fill-opacity:1;fill-rule:nonzero;stroke:none"
       id="path186"
       inkscape:connector-curvature="0" /><path
       d="m 356.87207,518.71484 c 7.24902,-2.79785 15.72266,-3.10791 21.80273,-0.33349 9.76661,4.45996 12.86426,14.28027 14.27833,18.10595 l -36.08106,-17.77246"
       style="fill:#80cc28;fill-opacity:1;fill-rule:nonzero;stroke:none"
       id="path188"
       inkscape:connector-curvature="0" /><path
       d="m 369.84863,536.16895 c -6.31445,-3.27491 -10.62011,-9.88477 -12.97656,-17.45411 l 36.08106,17.77246 c -5.30958,2.07227 -14.65625,4.06446 -23.1045,-0.31933"
       style="fill:#005d28;fill-opacity:1;fill-rule:nonzero;stroke:none"
       id="path190"
       inkscape:connector-curvature="0" /><path
       d="m 382.35449,476.72119 c 7.28223,-1.97998 15.77539,-1.50244 21.44336,1.63672 9.09375,5.04297 11.36231,14.31982 12.38965,18.20215 l -33.83301,-19.83887"
       style="fill:#80cc28;fill-opacity:1;fill-rule:nonzero;stroke:none"
       id="path192"
       inkscape:connector-curvature="0" /><path
       d="m 393.39844,494.22461 c -5.86817,-3.61914 -9.43262,-9.86084 -11.04395,-17.50342 l 33.83301,19.8374 c -5.4248,1.45166 -15.2002,2.34375 -22.78906,-2.33642"
       style="fill:#005d28;fill-opacity:1;fill-rule:nonzero;stroke:none"
       id="path194"
       inkscape:connector-curvature="0" /><path
       d="m 431.93652,437.31494 c 1.99512,7.81934 0.86621,15.47705 -2.51464,20.46045 -5.31348,7.82568 -14.47559,9.91309 -18.3252,10.61572 l 20.83984,-31.07617"
       style="fill:#80cc28;fill-opacity:1;fill-rule:nonzero;stroke:none"
       id="path196"
       inkscape:connector-curvature="0" /><path
       d="m 414.28613,446.76318 c 3.72266,-5.08545 10.19825,-7.98877 17.65039,-9.44824 l -20.83984,31.07617 c -1.62988,-5.40136 -2.0957,-14.39843 3.18945,-21.62793"
       style="fill:#005d28;fill-opacity:1;fill-rule:nonzero;stroke:none"
       id="path198"
       inkscape:connector-curvature="0" /><path
       d="m 263.8999,541.42285 c 3.13086,5.62158 4.10449,12.21973 2.18311,17.32617 -2.7461,7.28955 -9.41992,10.93604 -12.7583,12.13086 l 10.57519,-29.45703"
       style="fill:#005d28;fill-opacity:1;fill-rule:nonzero;stroke:none"
       id="path200"
       inkscape:connector-curvature="0" /><path
       d="m 251.10547,553.90283 c 2.04785,-5.53369 5.65185,-9.23828 12.79443,-12.47998 l -10.57519,29.45703 c -1.63477,-3.02832 -4.66846,-10.35644 -2.21924,-16.97705"
       style="fill:#80cc28;fill-opacity:1;fill-rule:nonzero;stroke:none"
       id="path202"
       inkscape:connector-curvature="0" /><path
       d="m 185.25537,522.28564 c 0.2251,2.41163 0.45801,9.99756 -4.04541,14.5918 -4.78808,4.89307 -11.0874,5.52442 -14.64453,4.99268 l 18.68994,-19.58448"
       style="fill:#80cc28;fill-opacity:1;fill-rule:nonzero;stroke:none"
       id="path204"
       inkscape:connector-curvature="0" /><path
       d="m 171.67578,526.81934 c 4.39356,-4.25 10.98682,-4.81446 13.57959,-4.5337 l -18.68994,19.58448 c -0.22949,-3.05762 -0.37109,-9.73731 5.11035,-15.05078"
       style="fill:#005d28;fill-opacity:1;fill-rule:nonzero;stroke:none"
       id="path206"
       inkscape:connector-curvature="0" /><path
       d="m 216.08203,537.46191 c -0.82568,2.38819 -2.78174,9.12793 -10.03223,12.87354 -5.97607,3.0874 -13.89648,1.48242 -17.21582,-0.22022 l 27.24805,-12.65332"
       style="fill:#005d28;fill-opacity:1;fill-rule:nonzero;stroke:none"
       id="path208"
       inkscape:connector-curvature="0" /><path
       d="m 200.06787,536.67969 c 5.91016,-2.55323 13.54688,-0.35156 16.01416,0.78222 l -27.24707,12.65332 c 1.10596,-3.00634 3.83643,-10.23388 11.23291,-13.43554"
       style="fill:#80cc28;fill-opacity:1;fill-rule:nonzero;stroke:none"
       id="path210"
       inkscape:connector-curvature="0" /><path
       d="m 221.01514,563.354 c -0.17334,2.9712 -0.88526,10.82422 -8.19043,17.76563 -5.46875,5.20215 -13.00782,5.10254 -16.66504,4.36719 L 221.01514,563.354"
       style="fill:#80cc28;fill-opacity:1;fill-rule:nonzero;stroke:none"
       id="path212"
       inkscape:connector-curvature="0" /><path
       d="m 203.4751,569.00488 c 4.96191,-4.37451 11.69385,-6.06054 17.53857,-5.6499 l -24.854,22.13184 c 0.23388,-3.1919 0.99804,-10.91309 7.31543,-16.48194"
       style="fill:#005d28;fill-opacity:1;fill-rule:nonzero;stroke:none"
       id="path214"
       inkscape:connector-curvature="0" /><path
       d="m 221.85107,519.37061 c -1.20898,2.229 -5.18212,9.34423 -12.06787,11.15185 -7.32226,1.9292 -13.91504,-0.84375 -16.90234,-3.06152 l 28.97021,-8.09033"
       style="fill:#005d28;fill-opacity:1;fill-rule:nonzero;stroke:none"
       id="path216"
       inkscape:connector-curvature="0" /><path
       d="m 206.33984,516.04834 c 6.57911,-1.56689 13.26026,1.80615 15.51221,3.32227 l -28.97119,8.09033 c 1.58008,-2.78272 5.24023,-9.45459 13.45898,-11.4126"
       style="fill:#80cc28;fill-opacity:1;fill-rule:nonzero;stroke:none"
       id="path218"
       inkscape:connector-curvature="0" /><path
       d="m 249.3125,508.03516 c -0.35303,2.28027 -2.64746,9.68066 -7.49023,12.74951 -5.33155,3.36572 -11.99561,2.16943 -14.98047,0.94385 l 22.4707,-13.69336"
       style="fill:#005d28;fill-opacity:1;fill-rule:nonzero;stroke:none"
       id="path220"
       inkscape:connector-curvature="0" /><path
       d="m 235.2876,508.39795 c 5.12011,-2.82227 11.76269,-1.3418 14.0249,-0.36377 l -22.4707,13.69531 c 0.72265,-2.66894 2.26172,-9.91504 8.4458,-13.33154"
       style="fill:#80cc28;fill-opacity:1;fill-rule:nonzero;stroke:none"
       id="path222"
       inkscape:connector-curvature="0" /><path
       d="m 191.79346,483.26855 c 1.1084,3.74219 1.62158,13.80567 -2.27832,20.63135 -6.0835,10.63037 -16.34034,13.36377 -19.9043,13.97315 l 22.18262,-34.6045"
       style="fill:#80cc28;fill-opacity:1;fill-rule:nonzero;stroke:none"
       id="path224"
       inkscape:connector-curvature="0" /><path
       d="m 172.92041,495.71338 c 5.00342,-8.2627 15.56104,-12.11572 18.87402,-12.44483 l -22.18505,34.6045 c -0.99268,-4.30323 -1.85108,-13.62891 3.31103,-22.15967"
       style="fill:#005d28;fill-opacity:1;fill-rule:nonzero;stroke:none"
       id="path226"
       inkscape:connector-curvature="0" /><path
       d="m 237.17529,487.45508 c -0.49853,3.88867 -4.09228,13.72168 -10.49463,18.54443 -9.9624,7.51221 -20.74316,6.03858 -24.29199,5.22363 l 34.78662,-23.76806"
       style="fill:#80cc28;fill-opacity:1;fill-rule:nonzero;stroke:none"
       id="path228"
       inkscape:connector-curvature="0" /><path
       d="m 214.2085,491.6582 c 8.23486,-5.89062 20.03125,-5.16308 22.96679,-4.20312 l -34.78662,23.76806 c 0.56348,-4.2539 3.86621,-13.87402 11.81983,-19.56494"
       style="fill:#005d28;fill-opacity:1;fill-rule:nonzero;stroke:none"
       id="path230"
       inkscape:connector-curvature="0" /><path
       d="m 314.73242,458.88281 c -2.79785,-6.63379 -2.31445,-12.39111 1.16504,-12.67724 3.46875,-0.28467 8.42285,4.9917 11.01758,11.5957 2.50488,6.39258 1.86719,11.67627 -1.39551,11.98682 -3.25781,0.31054 -8.05371,-4.49366 -10.78711,-10.90528"
       style="fill:#ea7a31;fill-opacity:1;fill-rule:nonzero;stroke:none"
       id="path232"
       inkscape:connector-curvature="0" /><path
       d="m 298.51367,506.87793 c -3.24951,-5.29834 -3.71142,-10.25 -0.95117,-10.89893 2.75195,-0.66601 7.54785,3.22413 10.61719,8.51905 2.98242,5.13427 3.22265,9.71045 0.64258,10.3623 -2.58985,0.65137 -7.16407,-2.86084 -10.3086,-7.98242"
       style="fill:#ea7a31;fill-opacity:1;fill-rule:nonzero;stroke:none"
       id="path234"
       inkscape:connector-curvature="0" /><path
       d="m 267.05469,457.29541 c 3.62646,1.32666 2.19189,7.01904 -3.08155,12.56885 -5.11035,5.36865 -11.8999,8.56152 -15.29394,7.27783 -3.39844,-1.271 -2.30078,-6.56592 2.57519,-11.9834 5.04053,-5.58447 12.17481,-9.17822 15.8003,-7.86328"
       style="fill:#ea7a31;fill-opacity:1;fill-rule:nonzero;stroke:none"
       id="path236"
       inkscape:connector-curvature="0" /><path
       d="m 278.22461,465.13281 c -12.69336,17.63574 -15.52881,23.70215 -32.14404,37.66748 3.80517,-6.95703 64.49853,-86.79834 7.92285,-45.06201 0,0 -32.53906,22.31543 -75.09278,19.99268 0,0 82.86231,-8.68408 97.4253,-63.95166 0.13379,-0.50391 0.33252,-3.35938 0.2622,-4.26367 -0.5664,-7.42872 -3.16162,-13.66309 -5.38085,-17.77247 -1.82129,-3.37402 -5.25928,-7.59961 -6.31446,-8.69824 -5.22949,-5.44824 -14.45263,-7.53027 -17.96826,-9.16601 4.01221,-2.83203 17.58545,-0.4375 23.68164,-0.0137 l 22.60791,-0.94335 c 0.61621,0.0371 2.86084,-0.11036 3.99365,-0.11036 l 3.57715,10.08399 c 0,0 10.08399,2.04004 13.95606,2.70996 3.86718,0.67383 8.20507,1.13379 8.20507,1.13379 l -6.46972,-14.29297 c 7.13281,-0.94434 28.64453,-3.30469 32.59472,-0.88379 -4.48535,1.82324 -17.49707,3.20703 -22.80273,10.70508 -0.75195,0.75195 -6.07031,18.93555 -5.88769,25.3623 0.004,0.22754 0.0273,0.81543 0.0498,0.90625 10.01953,66.18897 78.33398,90.12403 78.33398,90.12403 -44.22363,-9.92383 -68.07226,-44.29688 -68.07226,-44.29688 -44.8501,-55.51758 -13.73926,26.14844 -4.48047,35.78906 -16.7041,-12.79492 -22.8252,-31.71728 -22.8252,-31.71728 5.09766,53.70117 50.90137,58.83594 50.90137,58.83594 -23.5957,0.64892 -41.75781,-18.87891 -41.75781,-18.87891 -38.74414,-41.41846 -24.27246,17.9126 -7.81055,26.37695 -1.47363,-0.77685 -32.14258,-13.64209 -26.50488,-59.63623"
       style="fill:#ea7a31;fill-opacity:1;fill-rule:nonzero;stroke:none"
       id="path238"
       inkscape:connector-curvature="0" /></g></svg>