<svg xmlns="http://www.w3.org/2000/svg" version="1.0" viewBox="0 0 1599.9 1384.88"><path fill="#062f62" d="M253.03 941.41C432.25 627.63 611.46 313.85 790.7.09c-33.48 214.83-67.09 429.63-100.57 644.46-.24 2.25-2.4 3.51-3.7 5.16C457.63 894.68 228.78 1139.6 0 1384.59c84.17-147.83 168.73-295.43 253.03-443.18zM808.55 0c263.88 461.57 527.5 923.29 791.35 1384.88-105.14-112.16-210.02-224.58-315.09-336.82-124.85-133.54-249.72-267.07-374.58-400.6-1.28-1.71-1.06-4.03-1.49-6.01C875.38 427.63 841.91 213.82 808.55 0ZM424.81 983.1c6.84-7.41 13.19-15.3 20.3-22.43 44.61-.22 89.24-.07 133.86-.08-77.19 141.45-154.78 282.68-231.96 424.13-93.26 0-186.51.04-279.77-.01 119.23-133.84 238.37-267.75 357.57-401.61Zm198.35-22.53c77.87.02 155.73-.05 233.59.02 6.89 47.05 13.87 94.08 20.74 141.13-25.76.02-51.51.03-77.27.02-.01 94.33 0 188.66-.01 283-81.58.02-163.16-.05-244.73.04 11.81-40.64 24.21-81.11 36.25-121.68 16.04-53.51 31.96-107.05 48.05-160.54-26.35.02-52.69 0-79.04.02 20.82-47.33 41.6-94.68 62.42-142.01zm311.23 2.15c8.55-3.53 17.87-1.88 26.83-2.15 64.66-.02 129.32.03 193.99-.03 38.12 42.59 76.02 85.41 114.12 128.03-52.74.02-105.49-.04-158.23.04-10.44.24-18.28 12.7-13.31 22.11 16 30 32.31 59.85 48.39 89.82 6.28 13.91 20.8 23.43 36.06 23.66 62.33.01 124.66 0 186.98 0 6.84.11 13.7-.22 20.53.14 47.5 53.27 94.73 106.81 142.09 160.21-157.54.04-315.07.03-472.61.01-6.97-.18-14.01.84-20.91-.53-16.82-2.61-31.95-13.96-39.2-29.35-3.57-6.96-4.6-14.79-6.65-22.25-27.17-109-54.48-217.98-81.58-327-4.11-17.47 6.55-36.82 23.5-42.71z"/></svg>