<svg xmlns="http://www.w3.org/2000/svg" width="605.122" viewBox="0 0 453.842 174.27" height="232.359"><path d="M433.87 498.098H85.265l-52.62-130.233 226.922-44.036 226.92 44.036Z" style="fill:#e31c2a;fill-rule:evenodd" transform="translate(-32.647 -323.829)"/><path d="M158.485 406.348c0 6.253-2.044 11.571-6.674 16.007-4.628 4.436-14.954 7.293-21.437 7.293H113.45v17.127H89.704v-45.16l-8.17.004v-15.24h48.84c6.483 0 17.727 2.526 22.356 6.922 4.629 4.397 5.755 6.792 5.755 13.047zm-28.111.94c0-1.529-.59-2.856-1.768-3.983-1.18-1.127-2.61-1.69-4.295-1.69H113.45v13.998l10.861-2.004c1.647-.304 3.118-1.196 4.295-2.286 1.177-1.088 1.768-2.437 1.768-4.036zm95.009 39.487h-19.567l-2.779-6.218H181.44l-2.78 6.218h-28.796l27.914-60.397H206.7zm-28.787-20.507-4.295-9.71-4.42 9.71zm100.446 20.507h-28.987l-15.106-17.33-2.08 17.33h-18.307v-45.16l-8.264.003v-15.24h48.935c6.483 0 15.79 1.734 21.001 6.077 4.947 4.123 7.11 6.87 7.11 13.126 0 4.36-2.655 10.988-6.067 14.405-3.194 3.2-7.687 5.482-11.75 7.3zm-23.81-39.488c0-1.528-.593-2.859-1.767-3.982-1.175-1.123-2.62-1.69-4.295-1.69h-10.86l-1.973 13.351 12.364-1.551c1.667-.209 3.594-1.008 4.765-2.093 1.171-1.083 1.768-2.436 1.768-4.035zm86.203 39.488h-51.059v-60.397h29.427l-5.68 43.162c10.41.147 16.197-.095 30.687-5.05zm72.488 0h-59.709v-60.397h65.388v13.037H395.96l.879 7.653h27.981v7.423l-26.483 3.27 1.532 11.78c5.373-.141 20.892-1.636 32.054-7.361z" style="fill:#fff;fill-rule:evenodd" transform="translate(-32.647 -323.829)"/></svg>