<?xml version="1.0" encoding="UTF-8" standalone="no"?>
<svg
   id="Layer_2"
   data-name="Layer 2"
   width="797"
   height="797"
   viewBox="0 0 797 797"
   version="1.1"
   xmlns="http://www.w3.org/2000/svg"
   xmlns:svg="http://www.w3.org/2000/svg">
  <defs
     id="defs4">
    <style
       id="style2">
      .cls-1 {
        fill: #1d0f82;
      }

      .cls-1, .cls-2, .cls-3, .cls-4 {
        stroke-width: 0px;
      }

      .cls-3 {
        fill: #fff;
      }

      .cls-4 {
        fill: #f9150c;
      }
    </style>
  </defs>
  <g
     id="Layer_1-2"
     data-name="Layer 1"
     transform="scale(0.40027714,0.41230415)">
    <path
       class="cls-3"
       d="m 995.5,35.68 c 529.5,0 958.75,416.74 958.75,930.82 0,514.08 -429.25,930.81 -958.75,930.81 C 466,1897.31 36.75,1480.59 36.75,966.51 36.75,452.43 466,35.68 995.5,35.68 Z"
       id="path6" />
    <path
       class="cls-2"
       d="m 995.5,35.69 c 529.5,0 958.75,416.74 958.75,930.82 0,514.08 -429.25,930.81 -958.75,930.81 C 466,1897.32 36.75,1480.58 36.75,966.51 36.75,452.44 466,35.69 995.5,35.69 Z M 995.5,0 C 861.12,0 730.75,25.57 608,75.96 489.45,124.64 382.99,194.33 291.57,283.09 200.16,371.84 128.39,475.2 78.25,590.3 26.32,709.46 0,836.04 0,966.51 c 0,130.47 26.32,257.03 78.25,376.22 50.14,115.08 121.91,218.44 213.32,307.19 91.42,88.75 197.88,158.44 316.43,207.13 122.76,50.41 253.12,75.96 387.5,75.96 134.38,0 264.75,-25.55 387.5,-75.96 118.55,-48.68 225.01,-118.37 316.43,-207.13 91.41,-88.75 163.18,-192.11 213.32,-307.19 51.93,-119.19 78.25,-245.76 78.25,-376.22 0,-130.46 -26.32,-257.05 -78.25,-376.22 C 1862.61,475.19 1790.83,371.84 1699.43,283.08 1608.01,194.33 1501.55,124.64 1383,75.95 1260.25,25.57 1129.88,0 995.5,0 Z"
       id="path8" />
    <path
       class="cls-4"
       d="m 176.96,621.7 c 110.61,36.39 240.81,61.12 359.55,61.12 300.73,0 613.34,-107.99 923.08,-107.99 135.34,0 258.48,14.78 354.02,46.87 C 1671.98,306.28 1350.98,100.73 996.27,100.73 641.56,100.73 320.89,308.61 176.96,621.7 Z"
       id="path10" />
    <path
       class="cls-1"
       d="m 1814.1,1312.36 c -110.61,-36.39 -240.81,-61.12 -359.55,-61.12 -300.73,0 -613.34,107.99 -923.08,107.99 -135.34,0 -258.48,-14.78 -354.02,-46.87 141.62,315.42 462.62,520.97 817.33,520.97 354.71,0 675.38,-207.88 819.31,-520.97 z"
       id="path12" />
    <path
       class="cls-2"
       d="m 557.2,786.72 h 319.91 v 88.72 H 683.96 v 45.88 h 151.86 v 85.33 H 683.96 v 45.89 h 195.37 v 88.71 H 557.21 V 786.72 Z m 1133.21,354.53 h 129.14 V 781.01 l -128.21,44.1 -0.93,316.15 z m -411.96,-77.85 c 24.06,60.75 95.88,89.71 202.91,89.71 107.03,0 173.09,-42.49 173.09,-117.56 0,-130.12 -227.2,-97.9 -227.2,-145.34 0,-13.76 16.42,-24.22 45.48,-24.22 40.29,0 62.39,12.54 70.58,37.83 l 102.66,-37.71 c -12.88,-49.55 -64.31,-87.39 -176.97,-87.39 -94.93,0 -165.02,39.79 -165.02,112.74 0,135.74 227.19,100.77 227.19,150.86 0,15.14 -16.12,24.21 -50.57,24.21 -51.75,0 -86.36,-12.5 -100.36,-40.33 l -101.78,37.22 z m -889.99,-22.75 -91.07,33.06 v 67.54 H 170.58 V 786.78 h 197.51 c 102.63,0 153.79,42.78 153.79,118.73 0,75.95 -56.41,107.71 -133.42,135.15 z M 348.78,875.39 H 297.4 v 106.35 l 47.99,-18.85 c 30.71,-11.18 48,-24.36 48,-51.84 0,-22.6 -16.39,-35.66 -44.61,-35.66 z m 708.24,265.85 H 930.22 V 786.77 h 197.51 c 102.63,0 153.79,42.78 153.79,118.73 0,75.95 -56.43,107.71 -133.42,135.15 l -91.08,33.06 v 67.54 z m 51.4,-265.85 h -51.4 v 106.35 l 48,-18.85 c 30.71,-11.18 48.01,-24.36 48.01,-51.84 0,-22.6 -16.4,-35.66 -44.61,-35.66 z"
       id="path14" />
  </g>
</svg>
